
      <svg data-logo="logo" xmlns="http://www.w3.org/2000/svg" viewBox="0 0 281 44">
        <g id="logogram" transform="translate(0, 2) rotate(0) "><path d="M0.99033 17.4405C2.22937 12.4605 5.09898 8.03799 9.14219 4.87751C13.1855 1.71696 18.1699 0 23.3018 0C28.4336 0 33.4181 1.71696 37.4613 4.87751C41.5046 8.03799 44.3741 12.4605 45.6132 17.4405H43.5979C40.1982 17.3905 36.8681 18.4065 34.0754 20.346C33.9142 20.4627 33.7459 20.5693 33.5716 20.6651H33.3364C33.1621 20.5693 32.9938 20.4627 32.8326 20.346C30.0152 18.4514 26.6969 17.4395 23.3018 17.4395C19.9066 17.4395 16.5883 18.4514 13.7709 20.346C13.6097 20.4627 13.4414 20.5693 13.2671 20.6651H13.032C12.8576 20.5693 12.6893 20.4627 12.5281 20.346C9.73537 18.4065 6.40536 17.3905 3.00566 17.4405H0.99033ZM39.9703 27.9707C41.0048 27.165 42.287 26.7435 43.5979 26.7782H46.3018V21.3872H43.5979C41.289 21.3593 39.033 22.078 37.1656 23.4362C36.1147 24.2109 34.8436 24.6289 33.538 24.6289C32.2324 24.6289 30.9612 24.2109 29.9104 23.4362C27.9956 22.1033 25.7187 21.3887 23.3857 21.3887C21.0528 21.3887 18.7758 22.1033 16.8611 23.4362C15.8103 24.2109 14.5391 24.6289 13.2335 24.6289C11.9279 24.6289 10.6567 24.2109 9.60588 23.4362C7.7155 22.0605 5.42709 21.341 3.08964 21.3872H0.301758V26.7782H3.00566C4.31649 26.7435 5.59873 27.165 6.63327 27.9707C8.54448 29.3045 10.8189 30.0196 13.1495 30.0196C15.4801 30.0196 17.7546 29.3045 19.6658 27.9707C20.7016 27.1675 21.9829 26.7463 23.2934 26.7782C24.6047 26.7406 25.8878 27.1625 26.921 27.9707C28.8357 29.3036 31.1127 30.0181 33.4456 30.0181C35.7785 30.0181 38.0555 29.3036 39.9703 27.9707ZM39.9703 37.6107C41.0048 36.805 42.287 36.3835 43.5979 36.4183H46.3018V31.0272H43.5979C41.289 30.9994 39.033 31.718 37.1656 33.0762C36.1147 33.8509 34.8436 34.2689 33.538 34.2689C32.2324 34.2689 30.9612 33.8509 29.9104 33.0762C27.9956 31.7434 25.7187 31.0289 23.3857 31.0289C21.0528 31.0289 18.7758 31.7434 16.8611 33.0762C15.8103 33.8509 14.5391 34.2689 13.2335 34.2689C11.9279 34.2689 10.6567 33.8509 9.60588 33.0762C7.7155 31.7007 5.42709 30.9811 3.08964 31.0272H0.301758V36.4183H3.00566C4.31649 36.3835 5.59873 36.805 6.63327 37.6107C8.54448 38.9445 10.8189 39.6596 13.1495 39.6596C15.4801 39.6596 17.7546 38.9445 19.6658 37.6107C20.7016 36.8076 21.9829 36.3864 23.2934 36.4183C24.6047 36.3806 25.8878 36.8025 26.921 37.6107C28.8357 38.9436 31.1127 39.6581 33.4456 39.6581C35.7785 39.6581 38.0555 38.9436 39.9703 37.6107Z" fill="#4B2E2E"/></g>
        <g id="logotype" transform="translate(53, 1)"><path fill="#4b2e2e" d="M13.49 34L8.31 34L8.31 8.54L16.31 8.54L20.44 20.23Q20.70 21.05 21.03 22.34Q21.36 23.64 21.71 25.15Q22.05 26.65 22.35 28.07Q22.65 29.49 22.83 30.53L22.83 30.53L21.83 30.53Q22.01 29.51 22.31 28.10Q22.61 26.69 22.95 25.18Q23.29 23.68 23.63 22.36Q23.96 21.05 24.22 20.23L24.22 20.23L28.29 8.54L36.32 8.54L36.32 34L31.07 34L31.07 21.99Q31.07 21.17 31.10 19.92Q31.14 18.67 31.17 17.23Q31.21 15.78 31.24 14.32Q31.28 12.86 31.29 11.56L31.29 11.56L31.62 11.56Q31.29 12.98 30.90 14.49Q30.51 16.00 30.11 17.42Q29.70 18.84 29.34 20.03Q28.99 21.22 28.73 21.99L28.73 21.99L24.51 34L20.12 34L15.83 21.99Q15.57 21.22 15.21 20.05Q14.85 18.88 14.45 17.46Q14.05 16.04 13.64 14.53Q13.23 13.01 12.85 11.56L12.85 11.56L13.26 11.56Q13.28 12.79 13.31 14.24Q13.35 15.70 13.39 17.16Q13.43 18.62 13.46 19.88Q13.49 21.13 13.49 21.99L13.49 21.99L13.49 34ZM47.06 34.38L47.06 34.38Q44.19 34.38 42.09 33.14Q39.99 31.90 38.85 29.68Q37.72 27.47 37.72 24.53L37.72 24.53Q37.72 21.56 38.85 19.35Q39.99 17.13 42.09 15.89Q44.19 14.65 47.06 14.65L47.06 14.65Q49.95 14.65 52.05 15.89Q54.14 17.13 55.28 19.35Q56.41 21.56 56.41 24.53L56.41 24.53Q56.41 27.47 55.28 29.68Q54.14 31.90 52.05 33.14Q49.95 34.38 47.06 34.38ZM47.06 30.34L47.06 30.34Q48.43 30.34 49.35 29.58Q50.28 28.82 50.74 27.50Q51.20 26.17 51.20 24.52L51.20 24.52Q51.20 22.82 50.74 21.51Q50.28 20.19 49.35 19.44Q48.43 18.69 47.06 18.69L47.06 18.69Q45.70 18.69 44.78 19.44Q43.87 20.19 43.41 21.51Q42.95 22.82 42.95 24.52L42.95 24.52Q42.95 26.17 43.41 27.50Q43.87 28.82 44.78 29.58Q45.70 30.34 47.06 30.34ZM62.84 34L57.71 34L57.71 14.89L62.67 14.89L62.67 18.23L62.87 18.23Q63.40 16.45 64.64 15.54Q65.88 14.64 67.49 14.64L67.49 14.64Q67.88 14.64 68.33 14.68Q68.78 14.72 69.14 14.81L69.14 14.81L69.14 19.39Q68.80 19.27 68.15 19.20Q67.50 19.13 66.92 19.13L66.92 19.13Q65.76 19.13 64.82 19.64Q63.88 20.14 63.36 21.04Q62.84 21.93 62.84 23.13L62.84 23.13L62.84 34ZM74.81 22.94L74.81 22.94L74.81 34L69.69 34L69.69 14.89L74.52 14.89L74.61 19.66L74.30 19.66Q75.05 17.27 76.58 15.96Q78.11 14.65 80.54 14.65L80.54 14.65Q82.52 14.65 83.99 15.52Q85.46 16.38 86.28 18.00Q87.10 19.61 87.10 21.85L87.10 21.85L87.10 34L81.98 34L81.98 22.74Q81.98 20.96 81.06 19.95Q80.15 18.94 78.52 18.94L78.52 18.94Q77.45 18.94 76.60 19.41Q75.75 19.88 75.28 20.77Q74.81 21.66 74.81 22.94ZM94.33 34L89.20 34L89.20 14.89L94.33 14.89L94.33 34ZM91.77 12.40L91.77 12.40Q90.60 12.40 89.78 11.63Q88.96 10.86 88.96 9.77L88.96 9.77Q88.96 8.67 89.78 7.90Q90.60 7.13 91.77 7.13L91.77 7.13Q92.93 7.13 93.76 7.90Q94.59 8.66 94.59 9.77L94.59 9.77Q94.59 10.86 93.76 11.63Q92.93 12.40 91.77 12.40ZM101.54 22.94L101.54 22.94L101.54 34L96.41 34L96.41 14.89L101.25 14.89L101.33 19.66L101.03 19.66Q101.78 17.27 103.31 15.96Q104.84 14.65 107.26 14.65L107.26 14.65Q109.25 14.65 110.72 15.52Q112.19 16.38 113.01 18.00Q113.83 19.61 113.83 21.85L113.83 21.85L113.83 34L108.70 34L108.70 22.74Q108.70 20.96 107.79 19.95Q106.87 18.94 105.25 18.94L105.25 18.94Q104.17 18.94 103.32 19.41Q102.48 19.88 102.01 20.77Q101.54 21.66 101.54 22.94ZM124.40 41.55L124.40 41.55Q122.03 41.55 120.25 40.95Q118.47 40.34 117.36 39.28Q116.25 38.22 115.82 36.87L115.82 36.87L120.23 35.64Q120.47 36.17 120.98 36.67Q121.48 37.18 122.32 37.50Q123.16 37.83 124.39 37.83L124.39 37.83Q126.35 37.83 127.47 36.93Q128.59 36.03 128.59 34.14L128.59 34.14L128.59 30.62L128.20 30.62Q127.86 31.39 127.21 32.10Q126.56 32.82 125.51 33.27Q124.45 33.73 122.90 33.73L122.90 33.73Q120.75 33.73 118.99 32.72Q117.23 31.71 116.17 29.64Q115.12 27.57 115.12 24.41L115.12 24.41Q115.12 21.18 116.19 19.01Q117.26 16.84 119.03 15.75Q120.80 14.65 122.92 14.65L122.92 14.65Q124.52 14.65 125.62 15.19Q126.71 15.73 127.39 16.54Q128.06 17.35 128.40 18.11L128.40 18.11L128.62 18.11L128.62 14.89L133.67 14.89L133.67 33.85Q133.67 36.43 132.48 38.14Q131.29 39.86 129.21 40.71Q127.12 41.55 124.40 41.55ZM124.51 29.83L124.51 29.83Q125.82 29.83 126.74 29.18Q127.65 28.53 128.13 27.31Q128.61 26.09 128.61 24.38L128.61 24.38Q128.61 22.69 128.13 21.42Q127.65 20.16 126.74 19.46Q125.82 18.76 124.51 18.76L124.51 18.76Q123.16 18.76 122.24 19.48Q121.33 20.21 120.86 21.47Q120.39 22.74 120.39 24.38L120.39 24.38Q120.39 26.05 120.86 27.28Q121.33 28.50 122.25 29.16Q123.17 29.83 124.51 29.83ZM143.35 34.38L143.35 34.38Q141.05 34.38 139.27 33.72Q137.49 33.06 136.36 31.80Q135.24 30.55 134.91 28.77L134.91 28.77L139.68 27.95Q140.06 29.28 141.00 29.95Q141.94 30.62 143.51 30.62L143.51 30.62Q144.96 30.62 145.81 30.06Q146.67 29.51 146.67 28.65L146.67 28.65Q146.67 27.90 146.06 27.42Q145.46 26.94 144.21 26.69L144.21 26.69L140.91 26.00Q138.14 25.44 136.77 24.08Q135.41 22.72 135.41 20.58L135.41 20.58Q135.41 18.74 136.42 17.41Q137.42 16.09 139.22 15.37Q141.01 14.65 143.44 14.65L143.44 14.65Q145.70 14.65 147.35 15.28Q149.01 15.90 150.04 17.05Q151.06 18.19 151.40 19.75L151.40 19.75L146.86 20.55Q146.57 19.58 145.74 18.95Q144.91 18.33 143.51 18.33L143.51 18.33Q142.24 18.33 141.39 18.86Q140.53 19.39 140.53 20.26L140.53 20.26Q140.53 20.99 141.09 21.49Q141.64 21.99 142.99 22.26L142.99 22.26L146.43 22.94Q149.20 23.51 150.55 24.78Q151.90 26.05 151.90 28.10L151.90 28.10Q151.90 29.98 150.80 31.39Q149.71 32.80 147.79 33.59Q145.87 34.38 143.35 34.38ZM161.64 34.38L161.64 34.38Q158.75 34.38 156.66 33.14Q154.56 31.90 153.43 29.68Q152.29 27.47 152.29 24.53L152.29 24.53Q152.29 21.56 153.43 19.35Q154.56 17.13 156.66 15.89Q158.75 14.65 161.64 14.65L161.64 14.65Q163.33 14.65 164.77 15.10Q166.20 15.54 167.31 16.36Q168.42 17.18 169.14 18.36Q169.86 19.54 170.13 21.01L170.13 21.01L165.36 21.90Q165.21 21.15 164.88 20.56Q164.56 19.97 164.10 19.55Q163.64 19.13 163.03 18.91Q162.42 18.69 161.69 18.69L161.69 18.69Q160.32 18.69 159.39 19.42Q158.46 20.16 157.99 21.47Q157.52 22.79 157.52 24.52L157.52 24.52Q157.52 26.22 157.99 27.53Q158.46 28.84 159.39 29.59Q160.32 30.34 161.69 30.34L161.69 30.34Q162.42 30.34 163.04 30.11Q163.65 29.88 164.13 29.45Q164.61 29.01 164.94 28.39Q165.26 27.78 165.40 27.01L165.40 27.01L170.17 27.88Q169.89 29.40 169.17 30.59Q168.46 31.78 167.35 32.63Q166.24 33.49 164.79 33.93Q163.35 34.38 161.64 34.38ZM176.74 34.38L176.74 34.38Q174.93 34.38 173.49 33.74Q172.04 33.09 171.21 31.82Q170.39 30.55 170.39 28.65L170.39 28.65Q170.39 27.06 170.98 25.98Q171.57 24.91 172.58 24.26Q173.60 23.61 174.89 23.27Q176.18 22.93 177.60 22.79L177.60 22.79Q179.26 22.62 180.27 22.47Q181.29 22.33 181.76 22.01Q182.23 21.70 182.23 21.08L182.23 21.08L182.23 20.99Q182.23 20.17 181.89 19.61Q181.55 19.05 180.88 18.75Q180.21 18.45 179.24 18.45L179.24 18.45Q178.25 18.45 177.51 18.75Q176.78 19.05 176.32 19.54Q175.85 20.04 175.63 20.65L175.63 20.65L170.93 19.87Q171.43 18.21 172.57 17.05Q173.72 15.88 175.42 15.27Q177.12 14.65 179.24 14.65L179.24 14.65Q180.79 14.65 182.25 15.02Q183.70 15.39 184.85 16.16Q186.01 16.93 186.68 18.16Q187.36 19.39 187.36 21.13L187.36 21.13L187.36 34L182.50 34L182.50 31.35L182.33 31.35Q181.87 32.24 181.10 32.91Q180.33 33.59 179.25 33.98Q178.16 34.38 176.74 34.38ZM178.20 30.77L178.20 30.77Q179.41 30.77 180.32 30.29Q181.24 29.81 181.75 28.99Q182.26 28.17 182.26 27.16L182.26 27.16L182.26 25.10Q182.04 25.27 181.58 25.40Q181.12 25.54 180.55 25.64Q179.99 25.75 179.44 25.83Q178.90 25.92 178.47 25.97L178.47 25.97Q177.53 26.10 176.81 26.41Q176.09 26.72 175.70 27.22Q175.31 27.73 175.31 28.51L175.31 28.51Q175.31 29.25 175.68 29.75Q176.06 30.26 176.70 30.51Q177.34 30.77 178.20 30.77ZM194.58 41.14L189.46 41.14L189.46 14.89L194.50 14.89L194.50 18.11L194.74 18.11Q195.10 17.35 195.75 16.55Q196.41 15.75 197.49 15.20Q198.56 14.65 200.19 14.65L200.19 14.65Q202.31 14.65 204.07 15.75Q205.83 16.84 206.88 19.03Q207.93 21.22 207.93 24.48L207.93 24.48Q207.93 27.66 206.90 29.86Q205.88 32.05 204.12 33.19Q202.36 34.32 200.15 34.32L200.15 34.32Q198.60 34.32 197.52 33.79Q196.45 33.27 195.77 32.49Q195.10 31.71 194.74 30.94L194.74 30.94L194.58 30.94L194.58 41.14ZM198.58 30.21L198.58 30.21Q199.92 30.21 200.83 29.47Q201.74 28.74 202.21 27.44Q202.68 26.14 202.68 24.46L202.68 24.46Q202.68 22.79 202.21 21.51Q201.74 20.23 200.84 19.49Q199.93 18.76 198.58 18.76L198.58 18.76Q197.27 18.76 196.34 19.47Q195.42 20.17 194.94 21.45Q194.46 22.72 194.46 24.46L194.46 24.46Q194.46 26.19 194.95 27.48Q195.44 28.77 196.36 29.49Q197.28 30.21 198.58 30.21ZM217.87 34.38L217.87 34.38Q214.95 34.38 212.83 33.18Q210.71 31.98 209.58 29.78Q208.44 27.57 208.44 24.55L208.44 24.55Q208.44 21.59 209.57 19.37Q210.70 17.15 212.76 15.90Q214.83 14.65 217.62 14.65L217.62 14.65Q219.50 14.65 221.12 15.25Q222.75 15.85 223.98 17.06Q225.21 18.26 225.90 20.07Q226.59 21.88 226.59 24.34L226.59 24.34L226.59 25.78L210.54 25.78L210.54 22.57L224.08 22.57L221.69 23.42Q221.69 21.93 221.23 20.83Q220.78 19.73 219.88 19.12Q218.99 18.52 217.65 18.52L217.65 18.52Q216.34 18.52 215.40 19.13Q214.47 19.75 214.00 20.80Q213.52 21.85 213.52 23.20L213.52 23.20L213.52 25.47Q213.52 27.13 214.07 28.26Q214.63 29.39 215.63 29.95Q216.63 30.51 217.96 30.51L217.96 30.51Q218.87 30.51 219.60 30.26Q220.34 30.00 220.86 29.50Q221.38 28.99 221.65 28.26L221.65 28.26L226.30 29.13Q225.84 30.70 224.69 31.89Q223.55 33.08 221.83 33.73Q220.11 34.38 217.87 34.38Z"/></g>
        
      </svg>
    